# xmcd
#
# Track frame offsets:
#	150
#	12068
#	24820
#	36595
#	49390
#	62882
#	75018
#	87890
#	101003
#	112921
#	125609
#	137478
#	150505
#	163085
#	181865
#	196979
#	210153
#	229190
#	240783
#	253026
#
# Disc length: 3524 seconds
#
# Revision: 0
# Processed by: cddbd v1.5.2PL0 Copyright (c) Steve Scherf et al.
# Submitted via: FairStars CD Ripper 1.52
#
DISCID=ee0dc214
DTITLE=Various Artist - Essential Playlist 20 Non-Stop Hits! R&B
DYEAR=2009
DGENRE=R&B
TTITLE0=The Four Tops - I Can't Help Myself (Sugar Pie, Honey Bunch)
TTITLE1=The Supremes - Stop! In the Name of Love
TTITLE2=The Temptations - The Way You Do the Things You Do
TTITLE3=Stevie Wonder - Uptight (Everything's Alright)
TTITLE4=Jr. Walker and the All-Stars - Shotgun
TTITLE5=Marvin Gaye - You're a Wonderful One
TTITLE6=Fontella Bass - Rescue Me
TTITLE7=Shirley Ellis - The Name Game
TTITLE8=Martha Reeves and the Vandellas - (Love is Like A) Heat Wave
TTITLE9=The Contours - Do You Love Me
TTITLE10=Bobby Hebb - Sunny
TTITLE11=Gladys Knight and the Pips - The Nitty Gritty
TTITLE12=Mary Wells - My Guy
TTITLE13=Billy Stewart - Summertime
TTITLE14=The Checkmates Ltd. - Black Pearl
TTITLE15=Jimmy Ruffin - What Becomes of the Broken Hearted
TTITLE16=James Brown - Papa's Got a Brand New Bag (Parts 1 and 2)
TTITLE17=The Four Tops - Standing in the Shadows of Love
TTITLE18=The Miracles - Shop Around
TTITLE19=Ruby and the Romantics - Our Day Will Come
EXTD=
EXTT0=
EXTT1=
EXTT2=
EXTT3=
EXTT4=
EXTT5=
EXTT6=
EXTT7=
EXTT8=
EXTT9=
EXTT10=
EXTT11=
EXTT12=
EXTT13=
EXTT14=
EXTT15=
EXTT16=
EXTT17=
EXTT18=
EXTT19=
PLAYORDER=
